<svg xmlns="http://www.w3.org/2000/svg" viewBox="0 0 46 46"><path d="M19.78 0c12.85 0 22.73 8.86 22.73 22s-9.88 22.3-22.74 22.3H5.33A5.1 5.1 0 0 1 0 39V5.52A5.25 5.25 0 0 1 5.33 0z" style="fill:#ff6900"></path><path d="M34.57 17.23c-.07.55-.69.55-1 .07-.9-1.52-2.07-1.8-3.94-1.94-1.39-.07-3 .07-4.56.07H25l-.11-.06a.3.3 0 0 1-.11-.21c.28-1.31 1.39-3.72 2.56-3.94.55-.07 1.8-.21 2.49-.21 3.17-.01 4.88 3.66 4.74 6.22m-18 12.55a22.1 22.1 0 0 0 7.19.69 19.1 19.1 0 0 0 8.92-2.91c-1 2.64-5 4.28-8.71 4.69 0 .21-.07.34-.07.55a14.9 14.9 0 0 0 6.77-1.94c-.69 2.56-4.15 3.6-7.33 3.81a4 4 0 0 1-.28.55 15.9 15.9 0 0 0 4.64-.62c-1.46 2.7-7.68 4.57-12.93 2.1a16.6 16.6 0 0 0 1.8-6.92m17.38-18.43a6.07 6.07 0 0 0-4.36-1.66c-2.07 0-3.8.55-6.36.62-1.73.07-3.32-3.72-5.39-4.22a2.69 2.69 0 0 0-4.21-1.24c-1.17-.69-3-.34-3 1-1.31-.41-3 .28-2.28 2.08-3.25.07-3.8 3-1.66 3.25-2.89 1.56-1.57 4.33.78 3.82.42 4.15 2.28 9.55-.76 10.87a8.14 8.14 0 0 1-4.36-.14L0 25.06v2.14a21.3 21.3 0 0 0 6 .8c4-.41 4.22-3.72 4-6.64s-1.17-6.16-.83-8.51l-.14-.14c-1.45 1.52-2.42 1.11-2.56.62-.16-.94 1.53-2.18 2.53-2.6 0-.07.07-.14.07-.21-.9.14-2 0-2.07-.62s1.52-1.52 3.6-1.31c.07 0 .07-.07.14-.07l-.41-.21a.72.72 0 0 1-.46-1 1.48 1.48 0 0 1 1.24-.46 4.6 4.6 0 0 1 1.89.37c.07 0 .07-.07.14-.07a2.5 2.5 0 0 1-.41-.41.53.53 0 0 1 0-.7 1.44 1.44 0 0 1 1.66.28l.34.34h.11l.1-.06a.75.75 0 0 1-.21-.46.41.41 0 0 1 .27-.57.84.84 0 0 1 .83.34 3.4 3.4 0 0 1 .41.86A5.74 5.74 0 0 0 12 8.93a6.61 6.61 0 0 0-.83 5.68 40.6 40.6 0 0 0 2 6.23v.07C14.85 25.68 18 37.44 2.63 43.68a6.3 6.3 0 0 0 2.56.62h1.59a20 20 0 0 0 6.84-5.67c7.05 3.11 13.46 1.52 16.24-3.6A6.77 6.77 0 0 0 33 30a5.19 5.19 0 0 0 1-4.48c-.07-.28-.34-.28-.76-.07-5.74 3.46-10.78 4-16.8 2.22a46 46 0 0 0-.83-5.61c-.14-2.42.62-3.6 5-2.15a13.7 13.7 0 0 1 5.25 2.79c.46.34 1.1.76 1.45.46a1.33 1.33 0 0 0 .28-1 11.6 11.6 0 0 0-1.24-4.36 36 36 0 0 1 3.94 0 2.23 2.23 0 0 1 2 1.52c.46 1.39 3.18 1 3.39-.14.41-2.42.55-5.61-1.8-7.82ZM3.25 32.11a25 25 0 0 0-3.25 0v1.45c1.86-.41 3-.62 3-.62Z"></path><path d="M20.54 17c-2.42-.55-5.1-1.25-6.5-3.32 0-.07-.07-.07-.14-.07a.6.6 0 0 0 .07.34l-.21.07a1.39 1.39 0 0 1-.07-1.66 1.78 1.78 0 0 1 2.28-.21l-.07.21a1.52 1.52 0 0 0-1 .07.38.38 0 0 0-.2.24.38.38 0 0 0 .06.31c1.17 2.22 4.64 2.7 8.71 2.36A.49.49 0 0 0 24 15a7.85 7.85 0 0 1 1.93-3.67 11 11 0 0 1-2 .14c-2.07.14-3.32-.14-3.67-.41l.07-.21a.49.49 0 0 0 .46 0 .26.26 0 0 0-.07-.21c-.39-.37-2.19-2.23-2.19-2.23-.21-1.64-2.53-1.64-3.39-.12l-.28-.07a2.3 2.3 0 0 1 .34-.83 4.35 4.35 0 0 0-3.2 3.72c-.83 7.06 9.88 5.4 12.93 8.24.07.07.21.28.28.14s-1.24-1.8-4.7-2.56Zm-3.72-8.52a1.67 1.67 0 0 1 1.59 1.11c.35.76.28 1.52-.21 1.73a1.55 1.55 0 0 1-1.61-1.1c-.07-.14-.07-.21-.14-.34h.07A.46.46 0 0 0 17 10a.52.52 0 0 0 0-.69.64.64 0 0 0-.55-.41l-.07-.07a.93.93 0 0 1 .41-.34M32.7 27.55a19.1 19.1 0 0 1-8.92 2.91 24.4 24.4 0 0 1-7.19-.69 10.6 10.6 0 0 1-.21 2.08 28.7 28.7 0 0 0 6.15.76 10.33 10.33 0 0 1-3 5.26c3.71.14 7.12-1.31 8.16-3.25a14.1 14.1 0 0 1-4.64.62c.07-.21.21-.34.28-.55 3.18-.14 6.64-1.18 7.33-3.81a14.9 14.9 0 0 1-6.77 1.94c0-.21.07-.34.07-.55 3.71-.46 7.67-2.08 8.71-4.71" style="fill:#fff"></path></svg>